<svg width="36" height="36" viewBox="0 0 36 36" fill="none" xmlns="http://www.w3.org/2000/svg">
<circle cx="18" cy="18" r="18" fill="#343232"/>
<path d="M25.7 9H10.3C9.582 9 9 9.582 9 10.3V25.7C9 26.418 9.582 27 10.3 27H25.7C26.418 27 27 26.418 27 25.7V10.3C27 9.582 26.418 9 25.7 9ZM14.339 24.338H11.667V15.748H14.339V24.338ZM13.004 14.574C12.147 14.574 11.455 13.88 11.455 13.026C11.455 12.171 12.146 11.478 13.004 11.478C13.858 11.478 14.551 12.172 14.551 13.026C14.551 13.881 13.858 14.574 13.004 14.574ZM24.339 24.338H21.67V20.161C21.67 19.165 21.653 17.883 20.283 17.883C18.894 17.883 18.682 18.969 18.682 20.089V24.338H16.015V15.748H18.574V16.922H18.611C18.967 16.247 19.838 15.535 21.137 15.535C23.84 15.535 24.34 17.314 24.34 19.627L24.339 24.338Z" fill="#FFF7F0"/>
</svg>
