<svg width="121" height="60" viewBox="0 0 121 60" fill="none" xmlns="http://www.w3.org/2000/svg">
<path d="M18.5646 25.5511H19.8647V25.8307H19.5828V15.4036H19.8651V15.6831H18.2827V14.332H24.2207C25.3935 14.332 26.3001 14.6311 26.9378 15.2263C27.5818 15.8254 27.9022 16.6934 27.9022 17.8307C27.9022 18.9538 27.5728 19.8289 26.9149 20.4574C26.2584 21.0823 25.3482 21.3965 24.1857 21.3965H21.3584V21.1169H21.6407V25.8311H21.3584V25.5511H23.2876V26.9023H18.2827V25.5511H18.5646ZM18.5646 26.1103V25.8303H18.8465V26.6223H18.5642V26.3427H23.0057V26.6223H22.7239V25.8307H23.0062V26.1103H21.076V20.8374H24.1853C25.1972 20.8374 25.9761 20.5751 26.5224 20.0547C27.0669 19.5356 27.338 18.7943 27.338 17.8307C27.338 16.8547 27.0754 16.124 26.5519 15.6325C26.0218 15.1396 25.2442 14.8911 24.2202 14.8911H18.5646V14.612H18.8465V15.4031H18.5642V15.124H20.147V26.1103H18.5646ZM21.3584 19.9938H24.0997C24.6357 19.9938 25.0417 19.8325 25.3146 19.5094C25.6001 19.1707 25.7435 18.7538 25.7435 18.2596V17.4694C25.7435 16.9747 25.6001 16.5583 25.3146 16.2196C25.0417 15.8965 24.6357 15.7351 24.1001 15.7351H21.3579V15.4556H21.6402V20.2734H21.3579L21.3584 19.9938ZM21.0765 20.5529V15.176H24.0997C24.8104 15.176 25.3603 15.4036 25.7471 15.8618C26.1199 16.3027 26.3073 16.8396 26.3073 17.4694V18.2596C26.3073 18.8898 26.1199 19.4263 25.7471 19.8671C25.3603 20.3254 24.8104 20.5529 24.0997 20.5529H21.0765Z" fill="#FFF7F0"/>
<path d="M29.1489 25.5512H30.4315V25.8307H30.1491V18.8618H30.4315L30.3822 19.1378L28.8647 18.8738V17.8236L32.1013 17.1987V19.0858H31.8194V18.8063H31.9054V19.0858L31.6482 18.9747C31.7356 18.777 31.844 18.5792 31.9735 18.3827C32.2648 17.9423 32.688 17.6034 33.1835 17.4138C33.4529 17.3098 33.7608 17.2578 34.1094 17.2578C34.6835 17.2578 35.1491 17.3983 35.5076 17.6796C35.8841 17.9765 36.0737 18.4001 36.0737 18.9485C36.0737 19.3636 35.9634 19.6934 35.7425 19.9418C35.5135 20.2005 35.2172 20.3285 34.8551 20.3285C34.4697 20.3285 34.1583 20.2214 33.9203 20.0076C33.6738 19.7854 33.5492 19.501 33.5492 19.1552C33.5492 18.869 33.6156 18.6294 33.7451 18.4383C33.8885 18.2298 34.0619 18.1085 34.2667 18.0721L34.3178 18.3463H34.0355V18.3116H34.3178L34.2492 18.5827C34.2066 18.5736 34.1633 18.5676 34.1197 18.565C34.0412 18.5587 33.9624 18.5557 33.8836 18.5561C33.6859 18.5561 33.4847 18.6067 33.2812 18.7072C33.0661 18.8152 32.8734 18.9521 32.7036 19.1205C32.5346 19.2878 32.3944 19.4815 32.2886 19.6938C32.1873 19.8947 32.1362 20.0947 32.1362 20.2907V25.8307H31.8548V25.5507H33.7661V26.9023H28.8652V25.5512H29.1489ZM29.1489 26.1103V25.8303H29.4303V26.6223H29.1489V26.3427H33.4847V26.6223H33.2028V25.8307H33.4852V26.1103H31.5729V20.2907C31.5729 20.0063 31.6428 19.7232 31.7844 19.4436C31.9193 19.1743 32.0928 18.9347 32.3043 18.7245C32.5171 18.5153 32.7618 18.3408 33.0294 18.2072C33.3113 18.0685 33.5963 17.9974 33.8836 17.9974C33.9956 17.9974 34.0897 18.001 34.1672 18.0076C34.251 18.0147 34.3245 18.0254 34.3859 18.0405L34.5997 18.093V18.5787L34.3685 18.6205C34.3178 18.6312 34.2667 18.6743 34.2125 18.7525C34.1462 18.8498 34.113 18.9836 34.113 19.1552C34.113 19.3356 34.1757 19.4818 34.2985 19.593C34.4298 19.7107 34.6154 19.7698 34.8551 19.7698C35.0478 19.7698 35.2034 19.7041 35.3208 19.5721C35.4467 19.4298 35.5099 19.221 35.5099 18.9485C35.5099 18.5805 35.3925 18.3027 35.1581 18.1187C34.9026 17.9174 34.5522 17.8165 34.1094 17.8165C33.8329 17.8165 33.5914 17.8565 33.3879 17.9365C33.18 18.0165 32.998 18.1205 32.8421 18.2507C32.6893 18.377 32.5554 18.5243 32.4446 18.6881C32.3368 18.8502 32.2431 19.021 32.1645 19.1987L32.091 19.3654H31.5384V17.5374H31.8198L31.8745 17.8116L29.2013 18.329L29.1484 18.0547H29.4308V18.6378H29.1484L29.1959 18.3636L30.7138 18.6276V26.1103H29.1489Z" fill="#FFF7F0"/>
<path d="M40.8589 25.7053C41.2457 25.7053 41.5805 25.6431 41.8601 25.5164C42.1244 25.4002 42.3563 25.2221 42.5359 24.9973C42.7161 24.768 42.8496 24.4951 42.9388 24.1813C43.0298 23.8569 43.075 23.4991 43.075 23.112V21.2542C43.075 20.8671 43.0298 20.5093 42.9388 20.1849C42.8492 19.8707 42.7165 19.5982 42.5359 19.3689C42.3563 19.1442 42.1244 18.966 41.8601 18.8498C41.58 18.7231 41.2461 18.6604 40.8589 18.6604C40.4601 18.6604 40.124 18.7227 39.8488 18.8498C39.5873 18.9664 39.3584 19.1446 39.182 19.3689C39.0014 19.5978 38.8683 19.8707 38.7791 20.1849C38.6851 20.5336 38.6393 20.8933 38.6428 21.2542V23.112C38.6428 23.4987 38.6881 23.8564 38.7791 24.1813C38.8687 24.4955 39.0014 24.768 39.182 24.9973C39.355 25.2195 39.579 25.3929 39.8488 25.5164C40.1235 25.6431 40.4596 25.7053 40.8589 25.7053ZM40.8589 26.2644C40.3776 26.2644 39.9626 26.1844 39.6126 26.0249C39.2688 25.8699 38.9678 25.6346 38.7356 25.3391C38.5115 25.0529 38.3453 24.716 38.2364 24.3324C38.1284 23.9346 38.0755 23.524 38.0791 23.112V21.2542C38.0791 20.8151 38.1315 20.4089 38.2364 20.0355C38.3453 19.6502 38.5115 19.3133 38.7356 19.0267C38.9674 18.7312 39.2685 18.4964 39.6126 18.3427C39.9626 18.1813 40.3776 18.1013 40.8589 18.1013C41.3281 18.1013 41.7395 18.1813 42.0949 18.3413C42.4534 18.504 42.7492 18.7315 42.9805 19.0267C43.2063 19.3133 43.3726 19.6498 43.4815 20.0355C43.5864 20.4089 43.6388 20.8151 43.6388 21.2542V23.112C43.6388 23.5511 43.5864 23.9573 43.4815 24.3324C43.3726 24.716 43.2063 25.0524 42.9805 25.3391C42.7467 25.6365 42.4425 25.872 42.0949 26.0249C41.7395 26.1849 41.3281 26.2644 40.8589 26.2644ZM40.8589 27.1084C40.206 27.1084 39.6086 26.992 39.0646 26.7573C38.5262 26.5299 38.0468 26.1845 37.6623 25.7471C37.2791 25.3133 36.9834 24.7942 36.775 24.1915C36.5684 23.5947 36.4648 22.9262 36.4648 22.1827C36.4648 21.452 36.5679 20.7853 36.775 20.1827C36.9834 19.5755 37.2791 19.0529 37.6623 18.6187C38.0469 18.1812 38.5265 17.8358 39.065 17.6084C39.6091 17.3738 40.206 17.2573 40.8589 17.2573C41.5101 17.2573 42.1088 17.3738 42.6533 17.6084C43.1917 17.8358 43.6711 18.1812 44.0556 18.6187C44.437 19.0529 44.7332 19.5755 44.9429 20.1831C45.1495 20.7853 45.253 21.452 45.253 22.1831C45.253 22.9262 45.15 23.5942 44.9411 24.192C44.7327 24.7942 44.437 25.3133 44.0556 25.7475C43.6708 26.1849 43.1911 26.5302 42.6524 26.7573C42.1084 26.9915 41.5096 27.108 40.8585 27.108L40.8589 27.1084ZM40.8589 26.5493C41.433 26.5493 41.9569 26.4484 42.4292 26.2453C42.8902 26.0507 43.3008 25.7552 43.6303 25.3809C43.9646 25.0009 44.2236 24.544 44.4092 24.0111C44.5947 23.4733 44.6893 22.8635 44.6893 22.1831C44.6893 21.5147 44.5947 20.9071 44.4092 20.3635C44.2236 19.8253 43.9646 19.3653 43.6303 18.9867C43.3014 18.6113 42.8907 18.315 42.4292 18.1204C41.9565 17.9191 41.433 17.8169 40.8589 17.8169C40.2849 17.8169 39.761 17.9191 39.2868 18.1204C38.8256 18.3156 38.415 18.6119 38.0858 18.9871C37.7533 19.3649 37.4924 19.8253 37.3087 20.3635C37.1214 20.9071 37.0286 21.5147 37.0286 22.1831C37.0286 22.8635 37.1214 23.4729 37.3087 24.0111C37.4924 24.5444 37.7515 25.0009 38.0858 25.3809C38.4156 25.7548 38.8261 26.0503 39.2868 26.2453C39.7614 26.4484 40.2849 26.5493 40.8589 26.5493Z" fill="#FFF7F0"/>
<path d="M51.5984 27.1085C50.8231 27.1085 50.1912 26.9437 49.7041 26.6121C49.221 26.2854 48.8705 25.8863 48.6523 25.4134L48.9095 25.2974V25.5765H48.8392V25.2974L49.0807 25.4397L48.2024 26.9019H47.1869V14.8708H47.4687L47.4194 15.1463L45.9038 14.881V13.8117L49.1739 13.209V19.0859H48.8916V18.8063H48.9602V19.0859L48.7047 18.9694C48.9216 18.501 49.2649 18.0997 49.7341 17.7663C50.2101 17.4277 50.8316 17.2579 51.5984 17.2579C52.7977 17.2579 53.7567 17.6899 54.4782 18.5548C55.1872 19.4037 55.5403 20.6134 55.5403 22.1832C55.5403 23.7525 55.1872 24.9628 54.4782 25.8117C53.7567 26.6761 52.7977 27.1085 51.5984 27.1085ZM51.5984 26.5494C52.6207 26.5494 53.4349 26.185 54.044 25.4539C54.6656 24.709 54.977 23.6188 54.977 22.1828C54.977 20.7472 54.6656 19.657 54.044 18.9121C53.4345 18.1814 52.6207 17.8165 51.5984 17.8165C50.9522 17.8165 50.4413 17.9521 50.0613 18.221C49.6745 18.4957 49.3926 18.8237 49.2174 19.2023L49.1421 19.3654H48.6106V13.5459H48.8925L48.9431 13.8201L46.2368 14.3201L46.1861 14.0445H46.468V14.6468H46.1857L46.235 14.3725L47.7511 14.6361V26.6223H47.4692V26.3428H48.0415V26.6223L47.7995 26.4783L48.6801 25.0179H49.0897L49.165 25.181C49.3398 25.5574 49.6257 25.8805 50.0227 26.1499C50.4131 26.4152 50.9383 26.549 51.5984 26.549V26.5494ZM51.1816 25.5685C51.8906 25.5685 52.4405 25.3357 52.829 24.869C53.2315 24.3881 53.4331 23.7334 53.4331 22.9054V21.461C53.4331 20.6325 53.2315 19.9783 52.829 19.4974C52.4405 19.0303 51.8906 18.7979 51.1816 18.7979C50.9316 18.7979 50.6797 18.8343 50.4274 18.9072C50.1805 18.9783 49.9613 19.0805 49.7745 19.2108C49.5921 19.3374 49.4473 19.4952 49.3353 19.685C49.2264 19.8637 49.1739 20.0668 49.1739 20.2908V24.0757C49.1739 24.301 49.2264 24.5023 49.3353 24.6832C49.4473 24.8708 49.5921 25.0285 49.7745 25.1552C49.9618 25.2854 50.1805 25.3881 50.4274 25.4592C50.6723 25.531 50.9263 25.5678 51.1816 25.5685ZM51.1816 26.1277C50.8769 26.1277 50.5744 26.0841 50.2697 25.9957C49.977 25.9137 49.7002 25.7841 49.4505 25.6121C49.2017 25.4401 49.0023 25.2245 48.8481 24.9659C48.6887 24.6961 48.6066 24.3883 48.6106 24.0757V20.2908C48.6106 19.9645 48.6895 19.6677 48.8486 19.4001C48.9997 19.144 49.2052 18.9236 49.4509 18.7543C49.7007 18.5823 49.9775 18.4527 50.2701 18.3708C50.5749 18.2819 50.8774 18.2388 51.1821 18.2388C52.0681 18.2388 52.7632 18.5388 53.2637 19.1397C53.7522 19.7245 53.9969 20.4992 53.9969 21.461V22.9054C53.9969 23.8672 53.7522 24.6414 53.2637 25.2263C52.7632 25.8272 52.0681 26.1277 51.1821 26.1277H51.1816Z" fill="#FFF7F0"/>
<path d="M59.8218 27.1085C58.9148 27.1085 58.2004 26.8685 57.677 26.388C57.1482 25.9036 56.8838 25.2471 56.8838 24.4191C56.8838 23.9569 56.9613 23.5458 57.115 23.1849C57.2746 22.808 57.5372 22.4938 57.8993 22.2454C58.248 22.0076 58.6943 21.8271 59.2388 21.704C59.7676 21.584 60.408 21.5249 61.1569 21.5249H62.4404V21.8049H62.1585V20.4974C62.1585 19.8689 62.0133 19.3951 61.7211 19.0751C61.4356 18.7645 60.9929 18.6085 60.3941 18.6085C60.1332 18.6068 59.8728 18.6306 59.6166 18.6796C59.3925 18.7263 59.2124 18.7871 59.0757 18.8636L58.9359 18.6223H59.2177V18.6551H58.9354L59.0725 18.4107C59.2281 18.4951 59.3786 18.6187 59.522 18.7818C59.6901 18.9711 59.7743 19.228 59.7743 19.5507C59.7743 19.9276 59.6587 20.2263 59.4275 20.4485C59.2003 20.6676 58.9027 20.7769 58.5366 20.7769C58.1866 20.7769 57.8926 20.6676 57.6595 20.4525C57.4216 20.2303 57.301 19.912 57.301 19.4991C57.301 19.1916 57.392 18.8983 57.5699 18.6191C57.742 18.3498 57.9835 18.112 58.295 17.9071C58.598 17.7071 58.969 17.5476 59.41 17.4316C59.8447 17.3151 60.3345 17.2578 60.879 17.2578C61.8909 17.2578 62.6855 17.5231 63.265 18.0547C63.8516 18.5911 64.1456 19.3374 64.1456 20.2903V25.8827H63.8632V25.6031H65.4461V26.6276L65.3305 26.7107C65.1799 26.82 64.9823 26.9138 64.7407 26.992C64.4797 27.0726 64.2074 27.1119 63.9341 27.1085C63.4017 27.1085 62.9867 26.9538 62.6891 26.6431C62.3933 26.3374 62.2463 25.9347 62.2463 25.4347V25.3147H62.5278V25.5947H62.4404V25.3147L62.7012 25.4209C62.6116 25.636 62.4951 25.8445 62.3494 26.0458C62.1891 26.2623 61.991 26.4486 61.7646 26.596C61.5315 26.7507 61.2555 26.8738 60.9333 26.9676C60.6128 27.0614 60.2418 27.1085 59.8218 27.1085ZM59.8218 26.5494C60.1875 26.5494 60.5044 26.5094 60.7737 26.4311C61.0417 26.3534 61.2676 26.2543 61.4513 26.1311C61.6315 26.0129 61.7785 25.8756 61.8905 25.7196C62.0115 25.5529 62.1079 25.3827 62.1796 25.2071L62.2513 25.0356H62.8097V25.4347C62.8097 25.7858 62.9042 26.0578 63.0969 26.2578C63.2842 26.452 63.5625 26.5494 63.9336 26.5494C64.1698 26.5494 64.38 26.52 64.5655 26.4591C64.751 26.4 64.8967 26.3325 65.0002 26.2578L65.1642 26.4849H64.8823V25.8827H65.1647V26.1623H63.5818V20.2907C63.5818 19.5009 63.3488 18.8911 62.8831 18.4658C62.4108 18.0338 61.7435 17.8169 60.879 17.8169C60.3834 17.8169 59.9424 17.8689 59.5556 17.9711C59.1756 18.072 58.8588 18.2054 58.6065 18.372C58.3631 18.5338 58.1762 18.716 58.0463 18.9174C57.9253 19.1067 57.8643 19.3009 57.8643 19.4991C57.8643 19.7507 57.9257 19.9329 58.0449 20.044C58.1691 20.1587 58.3335 20.2174 58.5366 20.2174C58.7503 20.2174 58.9166 20.1605 59.0353 20.0458C59.151 19.9347 59.2106 19.7698 59.2106 19.5511C59.2106 19.3689 59.172 19.2351 59.0967 19.1503C59.0142 19.0502 58.914 18.9658 58.801 18.9014L58.654 18.8218V18.4591L58.7974 18.3791C58.9847 18.2716 59.2213 18.1898 59.5046 18.1325C59.7975 18.0751 60.0955 18.0472 60.3941 18.0494C61.1591 18.0494 61.7404 18.2663 62.1374 18.7005C62.5278 19.1258 62.7223 19.7245 62.7223 20.4974V22.084H61.1573C60.4502 22.084 59.8514 22.1396 59.3629 22.2489C58.8901 22.3565 58.5088 22.5076 58.2202 22.7054C57.9486 22.8929 57.7523 23.124 57.6349 23.4018C57.5107 23.6934 57.4494 24.0338 57.4494 24.4191C57.4494 25.084 57.6528 25.6031 58.0606 25.9783C58.4752 26.3583 59.0618 26.5494 59.8218 26.5494ZM60.4291 25.6031C60.9225 25.6031 61.3429 25.48 61.6861 25.2334C62.0012 25.0094 62.1585 24.6516 62.1585 24.1623V22.492H62.4408V22.7734H61.3128C60.8369 22.7734 60.4412 22.808 60.1261 22.8774C59.8286 22.9436 59.5973 23.0374 59.4329 23.1574C59.2787 23.2698 59.1684 23.4054 59.1021 23.5631C59.0286 23.7351 58.9937 23.9418 58.9937 24.1796V24.5405C58.9937 24.8845 59.1075 25.1431 59.3334 25.3169C59.5834 25.508 59.9496 25.6031 60.4291 25.6031ZM60.4291 26.1623C59.8214 26.1623 59.3419 26.0289 58.9901 25.7596C58.6154 25.4747 58.4299 25.0685 58.4299 24.5405V24.1796C58.4299 23.8671 58.4792 23.5894 58.5805 23.3498C58.6901 23.0918 58.8693 22.8688 59.0985 22.7054C59.328 22.5409 59.6291 22.4156 60.002 22.332C60.3592 22.2525 60.7952 22.2125 61.3128 22.2125H62.7223V24.1623C62.7223 24.8427 62.4879 25.3516 62.0169 25.688C61.5741 26.004 61.0453 26.1623 60.4291 26.1623Z" fill="#FFF7F0"/>
<path d="M71.4456 27.1085C70.6703 27.1085 70.0384 26.9437 69.5513 26.6121C69.0682 26.2854 68.7177 25.8863 68.4995 25.4134L68.7567 25.2974V25.5765H68.6863V25.2974L68.9279 25.4397L68.0495 26.9019H67.034V14.8708H67.3159L67.2666 15.1463L65.751 14.881V13.8117L69.0211 13.209V19.0859H68.7388V18.8063H68.8073V19.0859L68.5519 18.9694C68.7688 18.501 69.1121 18.0997 69.5813 17.7663C70.0572 17.4277 70.6788 17.2579 71.4456 17.2579C72.6448 17.2579 73.6039 17.6899 74.3254 18.5548C75.0344 19.4037 75.3875 20.6134 75.3875 22.1832C75.3875 23.7525 75.0344 24.9628 74.3254 25.8117C73.6039 26.6761 72.6448 27.1085 71.4456 27.1085ZM71.4456 26.5494C72.4678 26.5494 73.2821 26.185 73.8911 25.4539C74.5127 24.709 74.8242 23.6188 74.8242 22.1828C74.8242 20.7472 74.5127 19.657 73.8911 18.9121C73.2817 18.1814 72.4678 17.8165 71.4456 17.8165C70.7994 17.8165 70.2885 17.9521 69.9084 18.221C69.5217 18.4957 69.2398 18.8237 69.0646 19.2023L68.9893 19.3654H68.4578V13.5459H68.7397L68.7903 13.8201L66.084 14.3201L66.0333 14.0445H66.3152V14.6468H66.0329L66.0822 14.3725L67.5982 14.6361V26.6223H67.3164V26.3428H67.8886V26.6223L67.6466 26.4783L68.5273 25.0179H68.9369L69.0122 25.181C69.1869 25.5574 69.4728 25.8805 69.8699 26.1499C70.2602 26.4152 70.7855 26.549 71.4456 26.549V26.5494ZM71.0288 25.5685C71.7378 25.5685 72.2877 25.3357 72.6762 24.869C73.0786 24.3881 73.2803 23.7334 73.2803 22.9054V21.461C73.2803 20.6325 73.0786 19.9783 72.6762 19.4974C72.2877 19.0303 71.7378 18.7979 71.0288 18.7979C70.7788 18.7979 70.5269 18.8343 70.2746 18.9072C70.0277 18.9783 69.8085 19.0805 69.6216 19.2108C69.4392 19.3374 69.2945 19.4952 69.1824 19.685C69.0735 19.8637 69.0211 20.0668 69.0211 20.2908V24.0757C69.0211 24.301 69.0735 24.5023 69.1824 24.6832C69.2945 24.8708 69.4392 25.0285 69.6216 25.1552C69.809 25.2854 70.0277 25.3881 70.2746 25.4592C70.5195 25.531 70.7734 25.5678 71.0288 25.5685ZM71.0288 26.1277C70.7241 26.1277 70.4216 26.0841 70.1168 25.9957C69.8242 25.9137 69.5474 25.7841 69.2976 25.6121C69.0489 25.4401 68.8495 25.2245 68.6953 24.9659C68.5359 24.6961 68.4538 24.3883 68.4578 24.0757V20.2908C68.4578 19.9645 68.5367 19.6677 68.6958 19.4001C68.8469 19.144 69.0524 18.9236 69.2981 18.7543C69.5478 18.5823 69.8247 18.4527 70.1173 18.3708C70.422 18.2819 70.7245 18.2388 71.0293 18.2388C71.9153 18.2388 72.6103 18.5388 73.1109 19.1397C73.5994 19.7245 73.8441 20.4992 73.8441 21.461V22.9054C73.8441 23.8672 73.5994 24.6414 73.1109 25.2263C72.6103 25.8272 71.9153 26.1277 71.0293 26.1277H71.0288Z" fill="#FFF7F0"/>
<path d="M76.581 25.5512H77.8649V25.8308H77.5826V14.8708H77.8649L77.8156 15.1463L76.3 14.881V13.8117L79.5697 13.209V25.8312H79.2883V25.5512H80.8532V26.9023H76.2996V25.5512H76.581ZM76.581 26.1103V25.8303H76.8633V26.6223H76.581V26.3428H80.5709V26.6223H80.2885V25.8308H80.5709V26.1103H79.0059V13.5459H79.2878L79.3385 13.8201L76.6316 14.3201L76.581 14.0445H76.8633V14.6468H76.581L76.6303 14.3725L78.1464 14.6361V26.1103H76.581Z" fill="#FFF7F0"/>
<path d="M83.3124 30.5494C82.6492 30.5494 82.1571 30.4019 81.8367 30.105C81.5109 29.8028 81.3482 29.4103 81.3482 28.9277C81.3482 28.5597 81.4513 28.2579 81.6597 28.0214C81.8784 27.7734 82.1795 27.6499 82.5667 27.6499C82.9149 27.6499 83.1879 27.7579 83.3895 27.973C83.5836 28.1814 83.6817 28.4539 83.6817 28.7908C83.6817 29.0512 83.6118 29.2681 83.4697 29.4397C83.3353 29.605 83.1829 29.7126 83.0113 29.7628L82.9306 29.4957H83.213V29.5477H82.9306L83.027 29.2837C83.1233 29.3183 83.2407 29.3357 83.3824 29.3357C83.61 29.3357 83.8426 29.2317 84.077 29.0214C84.3347 28.7926 84.5691 28.4072 84.7846 27.8619L85.1467 26.8863L85.4111 26.9837L85.1485 27.0841L81.8524 18.6361L82.115 18.5357V18.8152H80.9319V17.4641H85.2081V18.8152H83.6763V18.5352L83.9408 18.4383L86.3531 24.9437L86.0887 25.0392V24.7592H86.1568V25.0392L85.8924 24.9454L88.2349 18.4419L88.4993 18.5352V18.8152H86.9693V17.4641H90.689V18.8152H89.5059V18.5352L89.7685 18.6361L86.0574 28.2023C85.7997 28.8708 85.4515 29.421 85.0123 29.8566C84.5462 30.3188 83.9793 30.5494 83.3124 30.5494ZM83.3124 29.9903C83.8233 29.9903 84.258 29.8134 84.613 29.461C84.9966 29.0823 85.3013 28.5957 85.5303 28.001L89.3132 18.2561H90.4075V18.5357H90.1252V17.7437H90.4075V18.0237H87.2508V17.7437H87.5327V18.5357H87.2503V18.2557H88.8995L86.3567 25.3188H85.8906L83.2721 18.2566H84.9262V18.5361H84.6443V17.7441H84.9267V18.0241H81.2129V17.7441H81.4948V18.5361H81.2133V18.2561H82.309L85.7123 26.9823L85.3103 28.0668C85.0629 28.6917 84.777 29.1503 84.4557 29.4366C84.1124 29.7423 83.7552 29.8948 83.3824 29.8948C83.1758 29.8948 82.992 29.8672 82.8343 29.8099L82.6487 29.7437V29.2872L82.8504 29.2281C82.9096 29.2108 82.971 29.1641 83.0324 29.0877C83.0884 29.0183 83.118 28.9192 83.118 28.7908C83.118 28.5997 83.0709 28.4539 82.9763 28.3517C82.8867 28.2579 82.7505 28.2094 82.5667 28.2094C82.3516 28.2094 82.1903 28.2699 82.085 28.3899C81.9698 28.5201 81.912 28.7006 81.912 28.9277C81.912 29.249 82.0151 29.5041 82.2217 29.6952C82.4336 29.8912 82.7957 29.9903 83.3124 29.9903Z" fill="#FFF7F0"/>
<path d="M18.5627 25.8306H19.8651V15.4H18.5627V14.6084H24.2206C25.3217 14.6084 26.1638 14.8826 26.7482 15.4275C27.3312 15.9746 27.6239 16.7751 27.6239 17.8306C27.6239 18.872 27.3227 19.6813 26.7204 20.2542C26.1181 20.8288 25.2729 21.1151 24.1857 21.1151H21.3565V25.8306H23.0093V26.6222H18.5627V25.8306ZM21.3565 20.2751H24.1014C24.7266 20.2751 25.2025 20.0804 25.5301 19.6915C25.8608 19.2991 26.0275 18.8217 26.0275 18.2608V17.4697C26.0275 16.9053 25.8608 16.4275 25.5301 16.0386C25.203 15.6497 24.7266 15.4555 24.1014 15.4555H21.3569L21.3565 20.2751Z" fill="#FFF7F0"/>
<path d="M29.1489 25.8308H30.4301V18.8579L29.1484 18.6357V18.0526L31.8239 17.5383V19.0872H31.9077C31.9866 18.9032 32.086 18.7192 32.2088 18.5383C32.3298 18.3543 32.4782 18.1877 32.657 18.0383C32.8444 17.8828 33.0576 17.7607 33.2871 17.6774C33.5251 17.5854 33.7998 17.5383 34.1135 17.5383C34.6208 17.5383 35.0272 17.6601 35.3315 17.8997C35.6399 18.141 35.794 18.4899 35.794 18.9486C35.794 19.2921 35.7062 19.5592 35.535 19.7539C35.3616 19.9481 35.1357 20.0454 34.8556 20.0454C34.5419 20.0454 34.2918 19.9654 34.1063 19.8023C33.9244 19.6357 33.8329 19.4201 33.8329 19.1566C33.8329 18.9254 33.8822 18.7383 33.9804 18.5943C34.0785 18.4521 34.1906 18.3686 34.3165 18.3441V18.3094C34.2586 18.2994 34.2003 18.2924 34.1417 18.2886C34.0556 18.2785 33.9689 18.2739 33.8822 18.2748C33.6286 18.2775 33.3791 18.3393 33.154 18.4552C32.9132 18.5747 32.6933 18.7318 32.5028 18.9206C32.3155 19.1117 32.1595 19.3268 32.0336 19.5663C31.9163 19.7894 31.8539 20.0369 31.8517 20.2886V25.8303H33.4829V26.6223H29.1489V25.8308Z" fill="#FFF7F0"/>
<path d="M40.8609 25.9831C41.2844 25.9831 41.6555 25.912 41.9741 25.768C42.2963 25.6257 42.5571 25.4257 42.7584 25.1706C42.9693 24.9003 43.124 24.5913 43.2137 24.2613C43.3118 23.9102 43.3607 23.5248 43.3607 23.1084V21.2542C43.3607 20.8426 43.3114 20.4608 43.2137 20.1084C43.1155 19.7573 42.9632 19.4537 42.7584 19.1986C42.5518 18.9355 42.2822 18.7277 41.9741 18.5942C41.6559 18.452 41.2844 18.3791 40.8609 18.3791C40.4217 18.3791 40.0453 18.452 39.7334 18.5946C39.4294 18.7315 39.1629 18.9386 38.9563 19.1986C38.7546 19.4537 38.6063 19.7577 38.5081 20.1084C38.4073 20.482 38.3579 20.8674 38.3611 21.2542V23.1084C38.3611 23.5248 38.4104 23.9102 38.5081 24.2608C38.6063 24.6084 38.7546 24.912 38.9563 25.1706C39.1637 25.4282 39.4301 25.633 39.7334 25.768C40.0453 25.912 40.4213 25.9831 40.8609 25.9831ZM40.8609 26.8306C40.2447 26.8306 39.6809 26.7213 39.1732 26.504C38.673 26.2936 38.2276 25.973 37.8709 25.5666C37.5155 25.1604 37.2408 24.6706 37.0445 24.1013C36.8491 23.532 36.7505 22.8933 36.7505 22.1848C36.7505 21.4871 36.8486 20.8497 37.0445 20.2751C37.2408 19.7017 37.5155 19.2106 37.8709 18.8026C38.2285 18.3971 38.6736 18.0766 39.1732 17.8648C39.6809 17.6484 40.2443 17.5391 40.8609 17.5391C41.4717 17.5391 42.0319 17.6484 42.5415 17.8653C43.0405 18.0779 43.4854 18.3983 43.8438 18.8031C44.2023 19.2106 44.481 19.7022 44.6773 20.2751C44.8732 20.8497 44.9713 21.4866 44.9713 22.1848C44.9713 22.8928 44.8732 23.5315 44.6769 24.1013C44.481 24.6711 44.2032 25.1604 43.8438 25.5666C43.4864 25.9724 43.0412 26.293 42.5415 26.5044C42.0319 26.7213 41.4717 26.8306 40.8609 26.8306Z" fill="#FFF7F0"/>
<path d="M51.5983 26.8308C50.8786 26.8308 50.2991 26.6815 49.8617 26.3863C49.4226 26.0859 49.1053 25.7232 48.9094 25.2961H48.8391L48.0409 26.6223H47.4677V14.8721L46.186 14.6432V14.0459L48.896 13.5459V19.0877H48.9587C49.1586 18.6623 49.4719 18.2992 49.8971 17.9975C50.326 17.6917 50.8934 17.5388 51.5988 17.5388C52.7084 17.5388 53.5962 17.9383 54.2594 18.7335C54.9267 19.5303 55.261 20.6815 55.261 22.185C55.261 23.685 54.9267 24.8357 54.2594 25.6361C53.5957 26.433 52.7084 26.8308 51.5983 26.8308ZM51.1851 25.8446C51.9833 25.8446 52.6031 25.5788 53.0476 25.0459C53.4908 24.5148 53.7131 23.8015 53.7131 22.9072V21.4628C53.7131 20.565 53.4908 19.8495 53.0476 19.3166C52.6031 18.7855 51.9833 18.5183 51.1851 18.5183C50.905 18.5183 50.6249 18.5597 50.3448 18.6428C50.0827 18.7159 49.8345 18.831 49.6099 18.9837C49.3993 19.133 49.2226 19.3246 49.0914 19.5459C48.9596 19.7715 48.892 20.0283 48.8955 20.289V24.0739C48.8955 24.3517 48.9601 24.6015 49.0914 24.8237C49.2258 25.0459 49.3997 25.2335 49.6094 25.3863C49.8232 25.5357 50.0683 25.6486 50.3448 25.7263C50.6249 25.8063 50.905 25.8446 51.1851 25.8446Z" fill="#FFF7F0"/>
<path d="M59.8219 26.8306C58.9897 26.8306 58.3385 26.615 57.8679 26.1848C57.4005 25.7537 57.1675 25.167 57.1675 24.4204C57.1675 23.9955 57.2343 23.6204 57.3709 23.2959C57.5108 22.9675 57.7384 22.695 58.0566 22.4764C58.3793 22.2595 58.7938 22.0928 59.3034 21.9764C59.8111 21.8617 60.4309 21.803 61.1587 21.803H62.4404V20.4972C62.4404 19.7995 62.2688 19.2644 61.9295 18.8928C61.588 18.5181 61.0767 18.3306 60.3959 18.3306C60.0912 18.3306 59.8111 18.3564 59.5557 18.407C59.3034 18.459 59.0968 18.5301 58.9395 18.6221V18.6568C59.0649 18.7261 59.1877 18.8301 59.3105 18.9692C59.4315 19.1048 59.4925 19.299 59.4925 19.5528C59.4925 19.8497 59.4051 20.0804 59.2334 20.247C59.06 20.4137 58.8292 20.4972 58.5402 20.4972C58.2601 20.4972 58.0293 20.4137 57.8469 20.247C57.6685 20.0804 57.5807 19.8306 57.5807 19.4972C57.5807 19.247 57.6542 19.0039 57.8047 18.7684C57.9589 18.5319 58.1722 18.3239 58.4492 18.143C58.7293 17.959 59.0739 17.8132 59.4853 17.7052C59.8949 17.5941 60.361 17.5386 60.879 17.5386C61.8175 17.5386 62.5471 17.7799 63.0705 18.2608C63.5975 18.7435 63.8619 19.419 63.8619 20.2888V25.879H65.1642V26.4835C65.0383 26.5768 64.8667 26.6568 64.6533 26.7261C64.4199 26.7984 64.1764 26.8337 63.9318 26.8306C63.4837 26.8306 63.1373 26.7057 62.8957 26.4555C62.6524 26.2021 62.5314 25.8617 62.5314 25.4346V25.3168H62.4404C62.3597 25.511 62.2531 25.7021 62.1182 25.8857C61.9784 26.0747 61.8053 26.2372 61.6073 26.3652C61.4007 26.5039 61.1484 26.615 60.8508 26.6986C60.5568 26.7852 60.2135 26.8306 59.8219 26.8306ZM60.4309 25.8795C60.9857 25.8795 61.4603 25.7404 61.8524 25.4626C62.2446 25.1812 62.4404 24.747 62.4404 24.1639V22.4901H61.3133C60.8176 22.4901 60.4027 22.5284 60.0666 22.6012C59.7304 22.6759 59.4642 22.7852 59.2684 22.9279C59.0799 23.0616 58.9322 23.2441 58.8413 23.4555C58.7517 23.6639 58.7082 23.9052 58.7082 24.1777V24.539C58.7082 24.9746 58.857 25.3079 59.1564 25.539C59.4593 25.7661 59.8846 25.879 60.4309 25.879V25.8795Z" fill="#FFF7F0"/>
<path d="M71.4455 26.8308C70.7258 26.8308 70.1463 26.6815 69.7089 26.3863C69.2697 26.0859 68.9524 25.7232 68.7566 25.2961H68.6862L67.8881 26.6223H67.3149V14.8721L66.0332 14.6432V14.0459L68.7432 13.5459V19.0877H68.8059C69.0058 18.6623 69.319 18.2992 69.7443 17.9975C70.1732 17.6917 70.7406 17.5388 71.4459 17.5388C72.5556 17.5388 73.4433 17.9383 74.1066 18.7335C74.7739 19.5303 75.1082 20.6815 75.1082 22.185C75.1082 23.685 74.7739 24.8357 74.1066 25.6361C73.4429 26.433 72.5556 26.8308 71.4455 26.8308ZM71.0323 25.8446C71.8304 25.8446 72.4502 25.5788 72.8948 25.0459C73.338 24.5148 73.5603 23.8015 73.5603 22.9072V21.4628C73.5603 20.565 73.338 19.8495 72.8948 19.3166C72.4502 18.7855 71.8304 18.5183 71.0323 18.5183C70.7522 18.5183 70.4721 18.5597 70.192 18.6428C69.9299 18.7159 69.6816 18.831 69.4571 18.9837C69.2464 19.133 69.0698 19.3246 68.9385 19.5459C68.8068 19.7715 68.7391 20.0283 68.7427 20.289V24.0739C68.7427 24.3517 68.8072 24.6015 68.9385 24.8237C69.073 25.0459 69.2469 25.2335 69.4566 25.3863C69.6704 25.5357 69.9155 25.6486 70.192 25.7263C70.4721 25.8063 70.7522 25.8446 71.0323 25.8446Z" fill="#FFF7F0"/>
<path d="M76.5832 25.8308H77.8645V14.8721L76.5828 14.6432V14.0459L79.286 13.5459V25.8303H80.5744V26.6223H76.5828L76.5832 25.8308Z" fill="#FFF7F0"/>
<path d="M83.3143 30.268C82.7205 30.268 82.2917 30.1449 82.0259 29.9C81.7597 29.6534 81.6266 29.3307 81.6266 28.9276C81.6266 28.6311 81.7073 28.3898 81.8717 28.2054C82.0344 28.02 82.2657 27.928 82.565 27.928C82.8312 27.928 83.0356 28.004 83.1812 28.1569C83.3246 28.3134 83.3981 28.5249 83.3981 28.7889C83.3981 28.9836 83.3488 29.14 83.2511 29.2614C83.153 29.3809 83.045 29.4591 82.9289 29.4969V29.5458C83.0589 29.5911 83.2113 29.6151 83.3842 29.6151C83.6818 29.6151 83.9758 29.4849 84.2667 29.2263C84.5553 28.9711 84.8161 28.5494 85.0509 27.9627L85.4148 26.9831L82.1164 18.532H81.2139V17.7405H84.925V18.5316H83.6791L86.0875 25.0391H86.1574L88.5034 18.532H87.25V17.7405H90.4081V18.5316H89.5046L85.793 28.1018C85.5497 28.7303 85.2221 29.2494 84.8125 29.6574C84.4011 30.0636 83.9028 30.268 83.3143 30.268Z" fill="#FFF7F0"/>
<path d="M59.702 44.8737C58.7949 44.8737 57.9564 44.7084 57.1879 44.3768C56.4297 44.0528 55.7535 43.566 55.2079 42.9515C54.6603 42.3355 54.2328 41.587 53.9262 40.7084C53.6219 39.8337 53.4678 38.8439 53.4678 37.7395C53.4678 36.5839 53.6381 35.5608 53.9773 34.6706C54.317 33.7781 54.784 33.0279 55.3796 32.4186C55.9638 31.8153 56.6718 31.3434 57.4558 31.035C58.2437 30.7239 59.084 30.5684 59.9767 30.5684C60.9026 30.5684 61.6415 30.7239 62.191 31.0332C62.7444 31.3457 63.1119 31.6688 63.2957 32.0039L63.1661 32.0732V31.9275H63.2836V32.0732H63.1366V30.8021H65.7009V35.4012H63.1366V34.4012C63.1366 33.771 62.9439 33.2679 62.5553 32.8959C62.1668 32.5212 61.5223 32.3355 60.6225 32.3355C59.4761 32.3355 58.6286 32.6199 58.0756 33.1932C57.5222 33.7657 57.2457 34.667 57.2457 35.8959V39.6044C57.2457 40.7448 57.4921 41.6044 57.9847 42.179C58.4709 42.7452 59.161 43.0297 60.0551 43.0297C60.9254 43.0297 61.5609 42.8164 61.9633 42.3875C62.368 41.955 62.5692 41.4168 62.5692 40.7675V38.9448H62.7162V39.0888H60.6122V37.5172H66.9924V39.0884H65.8474V38.9444H65.9949V44.6408H64.689L63.4521 42.6306L63.578 42.5541V42.6999H63.4413V42.5541L63.5816 42.5959C63.5117 42.8337 63.3642 43.087 63.1437 43.3546C62.925 43.6181 62.6432 43.8612 62.2967 44.0835C61.9553 44.3039 61.5663 44.4897 61.1307 44.6426C60.6915 44.7972 60.2146 44.8737 59.702 44.8737ZM59.702 44.5817C60.1815 44.5817 60.6243 44.5106 61.0339 44.3684C61.4212 44.2355 61.7914 44.0576 62.1368 43.8386C62.4572 43.6341 62.7162 43.4101 62.9156 43.1706C63.1119 42.9324 63.2396 42.7137 63.2992 42.5128L63.3306 42.4084H63.66L64.8951 44.4186L64.7714 44.495V44.3492H65.8479V44.495H65.7009V38.799H66.8459V38.9448H66.6989V37.6635H66.8459V37.8092H60.7591V37.6635H60.9061V38.9448H60.7591V38.799H62.8632V40.7679C62.8632 41.4915 62.6342 42.0972 62.1771 42.5857C61.7186 43.0746 61.011 43.3212 60.0556 43.3212C59.0696 43.3212 58.3046 43.0021 57.7606 42.3666C57.221 41.7381 56.9535 40.8164 56.9535 39.6044V35.8959C56.9535 34.5888 57.2564 33.6217 57.8637 32.9915C58.4731 32.3595 59.3936 32.0435 60.6225 32.0435C61.6012 32.0435 62.3138 32.2568 62.7601 32.6861C63.2065 33.1164 63.4306 33.6879 63.4306 34.4017V35.255H63.2836V35.1115H65.5539V35.2555H65.4069V30.9466H65.5539V31.0924H63.2836V30.9466H63.4306V32.219H63.0788L63.0366 32.1426C62.8807 31.8559 62.5517 31.5715 62.0476 31.2866C61.5416 31.0021 60.8501 30.8599 59.9767 30.8599C59.1207 30.8599 58.3172 31.0088 57.5643 31.3057C56.8193 31.5995 56.1462 32.0475 55.5898 32.6199C55.0242 33.2017 54.5778 33.9186 54.2516 34.775C53.9244 35.631 53.7618 36.6204 53.7618 37.7404C53.7618 38.8115 53.9088 39.7697 54.2045 40.6155C54.4985 41.4572 54.9063 42.1724 55.428 42.7595C55.9452 43.3418 56.5862 43.8031 57.3048 44.1101C58.0371 44.4239 58.8352 44.5817 59.702 44.5817Z" fill="#FFF7F0"/>
<path d="M73.459 43.1841C74.0138 43.1841 74.427 43.0246 74.6968 42.7037C74.9746 42.3752 75.1136 41.8721 75.1136 41.1948V37.6237C75.1136 36.9481 74.9746 36.445 74.6968 36.117C74.427 35.7957 74.0138 35.6339 73.459 35.6339C72.906 35.6339 72.4928 35.7957 72.2212 36.1166C71.9447 36.445 71.8067 36.9486 71.8067 37.6237V41.1948C71.8067 41.8721 71.9447 42.3752 72.2212 42.7037C72.4928 43.0246 72.906 43.1846 73.459 43.1846V43.1841ZM73.459 43.4761C72.8132 43.4761 72.3265 43.2819 71.9972 42.8912C71.6736 42.5072 71.5123 41.9432 71.5123 41.1948V37.6237C71.5123 36.877 71.6736 36.3126 71.9972 35.9294C72.3265 35.5383 72.8128 35.3441 73.459 35.3441C74.1048 35.3441 74.5933 35.5388 74.9227 35.9294C75.2462 36.313 75.4076 36.877 75.4076 37.6237V41.1948C75.4076 41.9432 75.2462 42.5072 74.9227 42.8912C74.5933 43.2819 74.1048 43.4761 73.459 43.4761ZM73.459 44.8739C72.6972 44.8739 72.0043 44.7503 71.3796 44.5041C70.7679 44.2676 70.2157 43.9012 69.7618 43.4308C69.3101 42.9641 68.9636 42.3894 68.7221 41.7108C68.4823 41.0334 68.3613 40.2677 68.3613 39.4103C68.3613 38.5526 68.4823 37.785 68.7221 37.1099C68.9636 36.4308 69.3101 35.8566 69.7618 35.3894C70.2162 34.9192 70.7682 34.5525 71.3796 34.3148C72.0043 34.0699 72.6972 33.9468 73.459 33.9468C74.2222 33.9468 74.9155 34.0699 75.5384 34.3148C76.1499 34.5525 76.7019 34.9192 77.1562 35.3894C77.608 35.8561 77.9562 36.4308 78.1977 37.1094C78.4375 37.785 78.5585 38.5526 78.5585 39.4103C78.5585 40.2681 78.4375 41.0334 78.1977 41.7103C77.9562 42.3894 77.608 42.9637 77.1562 43.4308C76.7023 43.9012 76.1501 44.2676 75.5384 44.5041C74.9155 44.7503 74.2222 44.8739 73.459 44.8739ZM73.459 44.5819C74.1837 44.5819 74.842 44.4659 75.43 44.233C76.0026 44.0121 76.5197 43.6695 76.9447 43.2294C77.3682 42.7921 77.6918 42.2539 77.9217 41.6134C78.1502 40.969 78.2645 40.2348 78.2645 39.4103C78.2645 38.5854 78.1507 37.8512 77.9212 37.2072C77.6918 36.5663 77.3682 36.0281 76.9443 35.5908C76.5194 35.1502 76.0026 34.8071 75.43 34.5854C74.842 34.353 74.1841 34.2366 73.459 34.2366C72.7344 34.2366 72.0778 34.353 71.4881 34.5854C70.9157 34.8079 70.3989 35.1509 69.9733 35.5908C69.5521 36.0281 69.2263 36.5663 68.9986 37.2072C68.7691 37.8512 68.6553 38.5854 68.6553 39.4103C68.6553 40.2348 68.7691 40.969 68.9986 41.6134C69.2263 42.2539 69.5516 42.7921 69.9738 43.2294C70.3993 43.6687 70.916 44.0112 71.4881 44.233C72.0778 44.4659 72.7339 44.5819 73.459 44.5819Z" fill="#FFF7F0"/>
<path d="M84.8491 43.1841C85.404 43.1841 85.8171 43.0246 86.0869 42.7037C86.3648 42.3752 86.5037 41.8721 86.5037 41.1948V37.6237C86.5037 36.9481 86.3648 36.445 86.0869 36.117C85.8171 35.7957 85.404 35.6339 84.8491 35.6339C84.2961 35.6339 83.8829 35.7957 83.6114 36.1166C83.3349 36.445 83.1968 36.9486 83.1968 37.6237V41.1948C83.1968 41.8721 83.3349 42.3752 83.6114 42.7037C83.8829 43.0246 84.2961 43.1846 84.8491 43.1846V43.1841ZM84.8491 43.4761C84.2034 43.4761 83.7167 43.2819 83.3873 42.8912C83.0637 42.5072 82.9024 41.9432 82.9024 41.1948V37.6237C82.9024 36.877 83.0637 36.3126 83.3873 35.9294C83.7167 35.5383 84.2029 35.3441 84.8491 35.3441C85.4949 35.3441 85.9834 35.5388 86.3128 35.9294C86.6364 36.313 86.7977 36.877 86.7977 37.6237V41.1948C86.7977 41.9432 86.6364 42.5072 86.3128 42.8912C85.9834 43.2819 85.4949 43.4761 84.8491 43.4761ZM84.8491 44.8739C84.0873 44.8739 83.3945 44.7503 82.7697 44.5041C82.158 44.2676 81.6059 43.9012 81.1519 43.4308C80.7002 42.9641 80.3538 42.3894 80.1122 41.7108C79.8725 41.0334 79.7515 40.2677 79.7515 39.4103C79.7515 38.5526 79.8725 37.785 80.1122 37.1099C80.3538 36.4308 80.7002 35.8566 81.1519 35.3894C81.6063 34.9192 82.1583 34.5525 82.7697 34.3148C83.3945 34.0699 84.0873 33.9468 84.8491 33.9468C85.6123 33.9468 86.3056 34.0699 86.9286 34.3148C87.54 34.5525 88.092 34.9192 88.5464 35.3894C88.9981 35.8561 89.3463 36.4308 89.5879 37.1094C89.8276 37.785 89.9486 38.5526 89.9486 39.4103C89.9486 40.2681 89.8276 41.0334 89.5879 41.7103C89.3463 42.3894 88.9981 42.9637 88.5464 43.4308C88.0924 43.9012 87.5403 44.2676 86.9286 44.5041C86.3056 44.7503 85.6123 44.8739 84.8491 44.8739ZM84.8491 44.5819C85.5738 44.5819 86.2321 44.4659 86.8201 44.233C87.3928 44.0121 87.9098 43.6695 88.3348 43.2294C88.7583 42.7921 89.0819 42.2539 89.3118 41.6134C89.5404 40.969 89.6546 40.2348 89.6546 39.4103C89.6546 38.5854 89.5408 37.8512 89.3114 37.2072C89.0819 36.5663 88.7583 36.0281 88.3344 35.5908C87.9096 35.1502 87.3927 34.8071 86.8201 34.5854C86.2321 34.353 85.5743 34.2366 84.8491 34.2366C84.1245 34.2366 83.468 34.353 82.8782 34.5854C82.3059 34.8079 81.789 35.1509 81.3635 35.5908C80.9422 36.0281 80.6164 36.5663 80.3887 37.2072C80.1593 37.8512 80.0455 38.5854 80.0455 39.4103C80.0455 40.2348 80.1593 40.969 80.3887 41.6134C80.6164 42.2539 80.9417 42.7921 81.3639 43.2294C81.7895 43.6687 82.3061 44.0112 82.8782 44.233C83.468 44.4659 84.124 44.5819 84.8491 44.5819Z" fill="#FFF7F0"/>
<path d="M95.4368 44.8737C94.787 44.8737 94.2008 44.7417 93.6774 44.4795C93.1539 44.2173 92.7112 43.8439 92.3455 43.3595C91.9811 42.8786 91.7028 42.3039 91.5083 41.6342C91.3156 40.9675 91.2197 40.2262 91.2197 39.4102C91.2197 38.5942 91.3161 37.8528 91.5083 37.1862C91.7028 36.5159 91.9811 35.9395 92.3455 35.4604C92.7112 34.9759 93.1539 34.6026 93.6774 34.3404C94.2008 34.0768 94.7874 33.9466 95.4368 33.9466C95.8186 33.9466 96.1632 33.9968 96.4716 34.0991C96.7621 34.1921 97.0379 34.3254 97.2908 34.4951C97.5323 34.6599 97.7371 34.8528 97.9034 35.0715C98.0661 35.2884 98.1974 35.5124 98.2937 35.7435L98.1571 35.7991V35.6546H98.2552V35.7991H98.1082V31.9377H98.2552L98.2238 32.0799L96.9332 31.8022V30.4586L101.377 29.5662V42.5351H101.23L101.261 42.3928L102.551 42.6706V44.0128L98.1082 44.9057V42.9808H98.2552V43.1266H98.1571V42.9808L98.2937 43.0342C98.101 43.5119 97.7631 43.9373 97.2782 44.3088C96.7884 44.6857 96.1758 44.8737 95.4368 44.8737ZM95.4368 44.5817C96.1072 44.5817 96.662 44.4151 97.0981 44.0786C97.5409 43.7399 97.8474 43.3564 98.0208 42.9275L98.0576 42.8355H98.4026V44.7275H98.2552L98.2256 44.5853L102.374 43.7502L102.404 43.8924H102.257V42.7866H102.404L102.373 42.9288L101.082 42.6515V29.7435H101.23L101.259 29.8857L97.1102 30.7208L97.0806 30.5786H97.2276V31.6844H97.0806L97.112 31.5422L98.4026 31.8195V35.9448H98.0594L98.0208 35.8546C97.9303 35.6374 97.8113 35.4329 97.6668 35.2466C97.5161 35.0476 97.3328 34.8752 97.1245 34.7364C96.8943 34.5818 96.6433 34.4601 96.3788 34.3751C96.1001 34.2831 95.7873 34.2364 95.4368 34.2364C94.8345 34.2364 94.2918 34.3577 93.8105 34.5991C93.3245 34.8441 92.9031 35.1984 92.5799 35.6337C92.2384 36.0853 91.9758 36.6306 91.7902 37.2657C91.6047 37.9066 91.5124 38.6217 91.5124 39.4102C91.5124 40.1982 91.6047 40.9133 91.7902 41.5524C91.9758 42.1897 92.2384 42.7328 92.5799 43.1844C92.9178 43.6324 93.3274 43.9777 93.8105 44.2191C94.2918 44.4622 94.8345 44.5817 95.4368 44.5817ZM96.4348 42.7973C96.9179 42.7973 97.3186 42.6479 97.6359 42.3511C97.9505 42.0559 98.1082 41.6582 98.1082 41.1564V37.6426C98.1082 37.1426 97.9505 36.7435 97.6354 36.4484C97.3186 36.1515 96.9179 36.0039 96.4344 36.0039C95.9289 36.0039 95.5067 36.1755 95.1706 36.5213C94.8327 36.8679 94.6628 37.3857 94.6628 38.0697V40.7293C94.6628 41.4151 94.8331 41.9306 95.1706 42.2782C95.5067 42.6235 95.9289 42.7973 96.4344 42.7973H96.4348ZM96.4348 43.0871C95.8446 43.0871 95.3525 42.8857 94.9591 42.4813C94.5669 42.0768 94.3707 41.4933 94.3707 40.7293V38.0697C94.3707 37.3057 94.5669 36.7226 94.9591 36.3195C95.3525 35.9151 95.8446 35.7119 96.4348 35.7119C96.995 35.7119 97.4624 35.8875 97.8366 36.2364C98.2131 36.5888 98.4022 37.0577 98.4022 37.6426V41.1564C98.4022 41.7417 98.2131 42.2102 97.8366 42.5626C97.4624 42.9137 96.995 43.0871 96.4348 43.0871Z" fill="#FFF7F0"/>
<path d="M59.7054 44.7311C58.8176 44.7311 57.998 44.568 57.2473 44.2448C56.5067 43.9305 55.8464 43.4559 55.3145 42.856C54.7825 42.2555 54.3644 41.5226 54.0614 40.6617C53.7621 39.8004 53.6133 38.8266 53.6133 37.7382C53.6133 36.5991 53.7778 35.596 54.1103 34.7244C54.4464 33.8488 54.9035 33.1164 55.483 32.5231C56.0522 31.9352 56.7422 31.4756 57.5063 31.1755C58.2767 30.8702 59.0995 30.7173 59.9788 30.7173C60.8787 30.7173 61.5926 30.8666 62.1214 31.1617C62.6484 31.4586 62.9966 31.7626 63.1647 32.0715H63.2839V30.9466H65.5524V35.2591H63.2839V34.4048C63.2839 33.7293 63.0737 33.1928 62.6533 32.7937C62.2365 32.3911 61.5612 32.1893 60.6232 32.1893C59.4356 32.1893 58.5519 32.4915 57.9688 33.0924C57.3894 33.6946 57.1008 34.6302 57.1008 35.8977V39.6062C57.1008 40.7831 57.3562 41.672 57.8711 42.2728C58.3892 42.8751 59.117 43.1755 60.0559 43.1755C60.9696 43.1755 61.6419 42.9466 62.0725 42.488C62.5014 42.0262 62.7165 41.4515 62.7165 40.7657V38.9466H60.7626V37.6617H66.848V38.9462H65.8464V44.4951H64.7681L63.5774 42.5573H63.4371C63.3708 42.7764 63.2341 43.0124 63.0244 43.2657C62.8178 43.516 62.548 43.7484 62.2119 43.9604C61.8794 44.1737 61.5011 44.3546 61.0776 44.5022C60.6573 44.6546 60.1993 44.7311 59.7054 44.7311Z" fill="#FFF7F0"/>
<path d="M73.4573 43.3283C74.6565 43.3283 75.257 42.6181 75.257 41.1963V37.627C75.257 36.2017 74.6565 35.4879 73.4573 35.4879C72.2562 35.4879 71.658 36.2017 71.658 37.627V41.1963C71.658 42.6186 72.2562 43.3283 73.4573 43.3283ZM73.4573 44.731C72.7152 44.731 72.0398 44.6097 71.4339 44.3706C70.8408 44.1407 70.3055 43.7851 69.8654 43.3288C69.4307 42.8754 69.0946 42.3199 68.857 41.6621C68.6222 41.0008 68.5066 40.2506 68.5066 39.4119C68.5066 38.5701 68.6222 37.8199 68.857 37.1621C69.0946 36.5008 69.4307 35.9434 69.8654 35.4883C70.3054 35.0336 70.8409 34.6803 71.4339 34.4537C72.0393 34.2141 72.7152 34.0928 73.4573 34.0928C74.203 34.0928 74.8806 34.2141 75.4878 34.4537C76.0791 34.68 76.6125 35.0333 77.0496 35.4883C77.487 35.9434 77.8231 36.5008 78.058 37.1621C78.291 37.8199 78.408 38.5701 78.408 39.4123C78.408 40.2506 78.2906 41.0008 78.058 41.6621C77.8231 42.3199 77.487 42.8754 77.0496 43.3288C76.6123 43.7854 76.0792 44.141 75.4878 44.3706C74.8806 44.6101 74.203 44.7314 73.4577 44.7314L73.4573 44.731Z" fill="#FFF7F0"/>
<path d="M84.8474 43.3283C86.0467 43.3283 86.6472 42.6181 86.6472 41.1963V37.627C86.6472 36.2017 86.0467 35.4879 84.8474 35.4879C83.6464 35.4879 83.0481 36.2017 83.0481 37.627V41.1963C83.0481 42.6186 83.6464 43.3283 84.8474 43.3283ZM84.8474 44.731C84.1053 44.731 83.4299 44.6097 82.824 44.3706C82.2309 44.1407 81.6956 43.7851 81.2555 43.3288C80.8208 42.8754 80.4847 42.3199 80.2472 41.6621C80.0124 41.0008 79.8967 40.2506 79.8967 39.4119C79.8967 38.5701 80.0124 37.8199 80.2472 37.1621C80.4847 36.5008 80.8208 35.9434 81.2555 35.4883C81.6955 35.0336 82.231 34.6803 82.824 34.4537C83.4295 34.2141 84.1053 34.0928 84.8474 34.0928C85.5931 34.0928 86.2707 34.2141 86.878 34.4537C87.4692 34.68 88.0026 35.0333 88.4398 35.4883C88.8772 35.9434 89.2133 36.5008 89.4481 37.1621C89.6811 37.8199 89.7981 38.5701 89.7981 39.4123C89.7981 40.2506 89.6807 41.0008 89.4481 41.6621C89.2133 42.3199 88.8772 42.8754 88.4398 43.3288C88.0025 43.7854 87.4693 44.141 86.878 44.3706C86.2707 44.6101 85.5931 44.7314 84.8479 44.7314L84.8474 44.731Z" fill="#FFF7F0"/>
<path d="M95.4385 44.7311C94.8115 44.7311 94.2482 44.6062 93.7436 44.356C93.2351 44.0993 92.7941 43.7284 92.4556 43.2729C92.1052 42.8062 91.834 42.2449 91.6431 41.5924C91.4558 40.9395 91.363 40.2138 91.363 39.4115C91.363 38.6062 91.4558 37.8769 91.6431 37.2244C91.834 36.5711 92.1052 36.0142 92.4556 35.5507C92.794 35.0965 93.2354 34.7278 93.744 34.4742C94.2482 34.2209 94.8115 34.092 95.438 34.092C95.8024 34.092 96.1318 34.1409 96.4258 34.2382C96.704 34.3285 96.968 34.4571 97.21 34.6204C97.4377 34.7729 97.6304 34.9538 97.7841 35.1618C97.9419 35.3662 98.0664 35.5787 98.1552 35.8009H98.2538V31.9395L97.0841 31.6827V30.5782L101.229 29.7449V42.5369L102.406 42.7867V43.8911L98.2533 44.7306V42.9809H98.1552C97.9732 43.4355 97.651 43.84 97.189 44.196C96.7269 44.5515 96.1421 44.7311 95.4385 44.7311ZM96.4325 42.9395C96.9541 42.9395 97.3879 42.7795 97.7348 42.4604C98.0799 42.1373 98.2529 41.7018 98.2529 41.1547V37.6409C98.2529 37.0991 98.0794 36.6671 97.7348 36.3422C97.3879 36.0195 96.9541 35.8564 96.4325 35.8564C95.8857 35.8564 95.4273 36.0435 95.0598 36.4187C94.6959 36.7938 94.5135 37.3458 94.5135 38.0715V40.7311C94.5135 41.4533 94.6959 42.0022 95.0603 42.3769C95.4277 42.752 95.8862 42.9395 96.4325 42.9395Z" fill="#FFF7F0"/>
</svg>
